Coordinates
version=1
nRows=32
nColumns=18
inDegrees=yes

Units are S.I. units (second, meters, Newtons, ...)
Angles are in degrees.

endheader
time	ground_thorax_rot_x	ground_thorax_rot_y	ground_thorax_rot_z	ground_thorax_tx	ground_thorax_ty	ground_thorax_tz	clav_prot	clav_elev	scapula_abduction	scapula_elevation	scapula_upward_rot	scapula_winging	plane_elv	shoulder_elv	axial_rot	elbow_flexion	pro_sup
      5.31000000	      1.34129191	     -1.26644449	     -9.37126530	     -0.00423131	      0.00403036	     -0.00078352	    -22.29004741	     -6.53861059	    -15.07527108	     -3.92212945	      6.35738103	      7.75797003	    -29.75916594	     21.14740825	     49.19196057	      0.00000000	     34.32000000
      5.32000000	      1.56681348	     -1.36936906	     -9.18963103	     -0.00423131	      0.00403036	     -0.00078352	    -22.18822953	     -6.14792925	    -14.83658665	     -3.69474615	      6.65390987	      7.54882716	    -30.97325067	     20.45210064	     56.88488018	      0.00000000	     34.32000000
      5.33000000	      1.58873643	     -1.38392047	     -9.24330502	     -0.00423131	      0.00403036	     -0.00078352	    -22.17884154	     -6.14708745	    -14.83565355	     -3.68518875	      6.62461074	      7.55547519	    -30.98699243	     20.41594430	     56.88198177	      0.00000000	     34.32000000
      5.34000000	      1.39699766	     -1.35912264	     -9.27271955	     -0.00423131	      0.00403036	     -0.00078352	    -22.15969666	     -6.37211691	    -14.92212347	     -3.76395875	      6.28821763	      7.71034538	    -30.60457223	     20.70697175	     53.52273389	      0.00000000	     34.32000000
      5.35000000	      1.27597098	     -1.18194301	     -9.22375964	     -0.00423131	      0.00403036	     -0.00078352	    -22.31305013	     -6.45447996	    -15.20706035	     -3.81595577	      6.21192194	      7.76519429	    -31.20400387	     20.65663866	     53.02082241	      0.00000000	     34.32000000
      5.36000000	      1.39301407	     -1.11050375	     -9.24046530	     -0.00423131	      0.00403036	     -0.00078352	    -22.38971181	     -6.29375142	    -15.27739225	     -3.75041767	      6.40639116	      7.66860895	    -31.72252989	     20.14798394	     56.71491812	      0.00000000	     34.32000000
      5.37000000	      1.39511615	     -1.04616860	     -9.22435807	     -0.00423131	      0.00403036	     -0.00078352	    -22.45291801	     -6.32123603	    -15.34588712	     -3.79532084	      6.47441751	      7.66443948	    -32.34724135	     19.94634314	     57.96849845	      0.00000000	     34.32000000
      5.38000000	      1.44022993	     -1.08650281	     -9.24206728	     -0.00423131	      0.00403036	     -0.00078352	    -22.45334893	     -6.32013100	    -15.35498077	     -3.78982722	      6.45833269	      7.66810742	    -32.36331515	     19.94342235	     57.96704955	      0.00000000	     34.32000000
      5.39000000	      1.48298144	     -1.09922673	     -9.22316899	     -0.00423131	      0.00403036	     -0.00078352	    -22.44451474	     -6.35418169	    -15.36964004	     -3.79472907	      6.38402143	      7.69672032	    -32.14699026	     20.39661668	     53.86266491	      0.00000000	     34.32000000
      5.40000000	      1.53351638	     -1.15425766	     -9.26530141	     -0.00423131	      0.00403036	     -0.00078352	    -22.45211733	     -6.35527744	    -15.38642758	     -3.79381488	      6.37632109	      7.69955140	    -32.17236181	     20.46738371	     53.87148996	      0.00000000	     34.32000000
      5.41000000	      1.49095812	     -0.95752082	     -9.18317703	     -0.00423131	      0.00403036	     -0.00078352	    -22.56822165	     -6.43242373	    -15.55125468	     -3.87164283	      6.41229313	      7.72279847	    -33.63394492	     20.36917136	     57.52645945	      0.00000000	     34.32000000
      5.42000000	      1.47579397	     -0.93065736	     -9.15780177	     -0.00423131	      0.00403036	     -0.00078352	    -22.56296126	     -6.48874235	    -15.63594911	     -3.85517647	      6.20170599	      7.79213191	    -32.97529177	     20.75867140	     54.07338077	      0.00000000	     34.32000000
      5.43000000	      1.31292829	     -0.84527163	     -9.11259119	     -0.00423131	      0.00403036	     -0.00078352	    -22.63564697	     -6.51494620	    -15.71358262	     -3.90378064	      6.28420973	      7.78456551	    -34.14173271	     20.61883673	     54.03221300	      0.00000000	     34.32000000
      5.44000000	      1.32431051	     -0.88366673	     -9.15823268	     -0.00423131	      0.00403036	     -0.00078352	    -22.63737939	     -6.48665761	    -15.73475524	     -3.87512661	      6.26110081	      7.78053847	    -34.13681855	     20.55431221	     54.04014256	      0.00000000	     34.32000000
      5.45000000	      1.32681672	     -1.00405380	     -9.53659678	     -0.00423131	      0.00403036	     -0.00078352	    -22.66917170	     -6.57487311	    -15.63773975	     -4.02091032	      6.52254245	      7.75029257	    -33.82125591	     20.06995539	     53.34698758	      0.00000000	     34.32000000
      5.46000000	      1.40054479	     -0.92486682	     -9.15565485	     -0.00423131	      0.00403036	     -0.00078352	    -22.71036761	     -6.36550786	    -15.85705520	     -3.80211258	      6.32189762	      7.72753632	    -33.98015281	     20.45446240	     51.30803641	      0.00000000	     34.32000000
      5.47000000	      1.41337262	     -0.92202248	     -9.14867861	     -0.00423131	      0.00403036	     -0.00078352	    -22.71740796	     -6.35569972	    -15.87592632	     -3.79232911	      6.31309462	      7.72693315	    -33.98339705	     20.38627207	     51.34173644	      0.00000000	     34.32000000
      5.48000000	      1.12446331	     -0.66228479	     -9.21405907	     -0.00423131	      0.00403036	     -0.00078352	    -22.97424660	     -6.59193714	    -16.29788073	     -3.97516179	      6.24944763	      7.83319189	    -35.17866395	     20.02882529	     52.66672102	      0.00000000	     34.32000000
      5.49000000	      1.12405538	     -0.59706222	     -9.08950943	     -0.00423131	      0.00403036	     -0.00078352	    -23.05166232	     -6.35905960	    -16.45694623	     -3.81229602	      6.30144500	      7.74298622	    -35.06260749	     19.83302304	     52.88711828	      0.00000000	     34.32000000
      5.50000000	      1.32108430	     -0.42963935	     -9.08346298	     -0.00423131	      0.00403036	     -0.00078352	    -23.26528892	     -6.03176781	    -16.63911650	     -3.71614196	      6.81498738	      7.51514975	    -36.72575328	     19.06212826	     58.81679637	      0.00000000	     34.32000000
      5.51000000	      1.35865827	     -0.34986177	     -9.03833465	     -0.00423131	      0.00403036	     -0.00078352	    -23.35132978	     -5.89144513	    -16.75327340	     -3.64900134	      6.94551030	      7.43906264	    -37.34317993	     18.78044454	     61.75332747	      0.00000000	     34.32000000
      5.52000000	      1.33913966	     -0.39315282	     -9.07319018	     -0.00423131	      0.00403036	     -0.00078352	    -23.35810808	     -5.87295649	    -16.77126615	     -3.63383700	      6.94147440	      7.43375323	    -37.35139849	     18.78322724	     61.75010096	      0.00000000	     34.32000000
      5.53000000	      1.39803706	     -0.47516999	     -9.14995195	     -0.00423131	      0.00403036	     -0.00078352	    -23.36995046	     -5.79305080	    -16.81300014	     -3.57092131	      6.93705898	      7.40878416	    -36.13076840	     19.18902253	     55.31070645	      0.00000000	     34.32000000
      5.54000000	      1.41820448	     -0.57277905	     -9.17046051	     -0.00423131	      0.00403036	     -0.00078352	    -23.38086568	     -5.78835764	    -16.83698186	     -3.56547509	      6.92855544	      7.40948663	    -36.15622146	     19.21165162	     55.31865785	      0.00000000	     34.32000000
      5.55000000	      1.34003927	     -0.60301902	     -9.06846818	     -0.00423131	      0.00403036	     -0.00078352	    -23.36302801	     -5.78456033	    -16.75061476	     -3.59279259	      7.03898965	      7.38177938	    -37.20051188	     19.35987979	     53.96575892	      0.00000000	     34.32000000
      5.56000000	      1.34623986	     -0.63770838	     -9.09916141	     -0.00423131	      0.00403036	     -0.00078352	    -23.37261832	     -5.77105584	    -16.77137705	     -3.58229991	      7.03687001	      7.37732548	    -37.21484869	     19.39072798	     53.97756938	      0.00000000	     34.32000000
      5.57000000	      1.35027897	     -0.57126278	     -9.04110338	     -0.00423131	      0.00403036	     -0.00078352	    -23.53433730	     -5.68489896	    -16.92701374	     -3.60407346	      7.31472120	      7.28397616	    -39.14394353	     18.82864208	     60.89501444	      0.00000000	     34.32000000
      5.58000000	      1.26262190	     -0.63797625	     -9.07269597	     -0.00423131	      0.00403036	     -0.00078352	    -23.51242590	     -5.85044148	    -16.91533358	     -3.69612065	      7.18827053	      7.36900889	    -38.67621922	     19.31285674	     56.05388669	      0.00000000	     34.32000000
      5.59000000	      1.30935565	     -0.83546503	     -9.08159814	     -0.00423131	      0.00403036	     -0.00078352	    -23.39201399	     -5.85438253	    -16.69707824	     -3.69723289	      7.20797964	      7.36352651	    -38.78661923	     19.45586770	     55.25937589	      0.00000000	     34.32000000
      5.60000000	      1.36402631	     -0.88483437	     -9.06456202	     -0.00423131	      0.00403036	     -0.00078352	    -23.39169465	     -5.85569484	    -16.66232339	     -3.71690011	      7.27378226	      7.34803796	    -39.50854329	     19.17538246	     59.66566167	      0.00000000	     34.32000000
      5.61000000	      1.71817533	     -1.18089149	     -8.86695322	     -0.00423131	      0.00403036	     -0.00078352	    -23.07162953	     -5.53650920	    -16.20731402	     -3.43657163	      7.23408336	      7.24571266	    -37.80674367	     19.88259092	     53.79210958	      0.00000000	     34.32000000
      5.62000000	      1.76396840	     -1.21126902	     -8.88617913	     -0.00423131	      0.00403036	     -0.00078352	    -23.08406661	     -5.57850569	    -16.21800258	     -3.47059174	      7.23570398	      7.25959572	    -37.83762786	     19.86354675	     53.79996869	      0.00000000	     34.32000000
